<?xml version="1.0" encoding="UTF-8"?><svg id="a" xmlns="http://www.w3.org/2000/svg" viewBox="0 0 450 392"><polygon points="-1 0 451 0 450 288.82 0 287.06 -1 0" fill="#64556b" fill-rule="evenodd"/><polygon points="-8 151 461 151 459.96 399 -6.96 397.49 -8 151" fill="#004373" fill-rule="evenodd"/><path d="M167.13,331.25c.43.2-.23,1.55,0,4.37.08.98.19,1.18.87,4.37.56,2.63.84,3.94.87,4.37.17,2.45-.38,4.39-.87,6.12-.59,2.06-1.28,3.44-1.75,4.37-.98,1.94-1.5,2.92-2.62,3.49-1.05.53-2.62.74-3.49,0-.45-.37-.4-.73-.87-1.75-.31-.67-.58-1.06-1.75-2.62-2.59-3.47-2.46-3.18-2.62-3.49-.41-.79-1.56-2.97-.87-5.24.07-.24.35-1.1,1.75-2.62,1.77-1.94,3.46-2.89,4.37-3.49,4.78-3.15,6.18-8.23,6.99-7.86Z" fill="#29292d"/><path d="M183.73,303.3c.07.73.05,1.61-1.75,6.99-1.26,3.78-1.92,5.65-2.62,6.99-1.34,2.54-2.74,4.19-4.37,6.12-2.55,3.01-4.64,4.77-6.12,6.12-7.01,6.42-6.35,8.72-12.23,13.98-1.03.93-4.78,4.19-10.48,6.99-5.16,2.53-11.36,5.57-18.35,4.37-2.25-.39-3.39-1.01-7.86-1.75-3.62-.6-5.66-.65-7.86-.87-6.88-.7-12.23-2.8-13.98-3.49-4.86-1.94-8.19-4.2-14.85-8.74-.5-.34-1.84-1.26-3.49-2.62-2.98-2.45-4.47-3.68-5.24-5.24-1.67-3.37-.76-8.84,2.62-11.36,3.31-2.46,7.69-1.12,11.36,0,6.29,1.93,10.18,5.37,12.23,6.99,11.98,9.42,32.13,11.99,38.44,5.24,2.85-3.04.06-4.97,2.62-11.36,4.02-10.01,12.18-8.56,30.58-21.84,1.73-1.25,5.99-4.63,8.74-3.49,2.28.94,2.43,4.93,2.62,6.99Z" fill="#fff"/><path d="M104.66,312.47c2.36-.06,4.39,0,6.99-.87,1.78-.59,2.37-1.13,2.62-1.75.25-.61.21-1.39-.87-3.49-1.34-2.61-2.86-4.48-3.49-5.24-1.88-2.25-2.56-2.62-3.49-4.37-.7-1.31-1.38-2.6-.87-3.49.55-.98,2.22-.96,5.24-.87,2.28.06,4.28.12,6.99.87.93.26,3.32.99,6.12,2.62,4.21,2.46,5.34,4.65,7.86,4.37.29-.03,1.07-.31,2.62-.87,2.16-.78,3.75-1.48,4.37-1.75,6.92-3.04,6.6-3.08,7.86-3.49,1.75-.57,4.08-.67,8.74-.87,4.31-.19,7.36-.11,11.36,0,1.66.05,5.16.16,9.61.87,3,.48,4.93,1,6.12,2.62.98,1.34,1.3,3.24.87,3.49-.32.19-.8-.67-1.75-.87-1.43-.31-2.65,1.15-4.37,2.62-1.43,1.23-3.28,2.28-6.99,4.37-2.69,1.52-3.15,1.27-5.24,2.62-1.76,1.13-3.03,2.25-3.93,3.06-2.46,2.19-2.43,2.7-4.37,4.37-1.82,1.56-3.43,2.47-5.24,3.49-3.21,1.81-4.15,1.82-6.12,3.49-1.84,1.57-2.38,2.72-2.62,3.49-.19.58-.65,2.05,0,3.49.71,1.56,2.31,2.17,3.49,2.62,1.77.67,2.32.32,5.24.87,2.26.43,4.16.79,4.37,1.75.16.76-.89,1.18-1.75,2.62-.9,1.5-.61,2.45-.87,5.24-.29,2.97-.93,5.12-1.75,7.86-.93,3.1-1.53,4.04-1.75,4.37-.25.37-.58.82-3.49,3.49-2.62,2.4-3.35,2.96-4.37,3.49-1.33.7-2.65,1.4-3.49.87-.84-.52-.41-1.75-.87-4.37-.17-.97-.7-2.39-1.75-5.24-1.54-4.17-1.81-4.26-1.75-5.24.07-1.19.52-1.8,2.62-5.24.88-1.45,1.69-2.95,2.62-4.37.55-.84,1.05-1.57.87-1.75-.19-.19-1.09.31-1.75.87-.89.77-1.12,1.48-1.75,2.62-.78,1.42-1.49,2.7-2.62,3.49-.67.47-1.5.77-3.49.87-4.18.22-7.47-.75-7.86-.87-3.92-1.19-3.66-2.11-7.86-3.49-3.64-1.2-4.07-.59-6.12-1.75-1.62-.92-1.83-1.58-5.24-5.24-2.49-2.67-3.73-4.01-5.24-5.24-2.07-1.69-3.71-2.59-6.99-4.37-4.74-2.58-6.08-2.67-6.99-2.62-.73.04-2.75.18-4.37,1.75-.3.29-1.66,1.61-1.75,3.49-.05,1.19.47,1.19.87,3.49.33,1.88.16,2.89,0,3.49-.23.88-.4,1.51-.87,1.75-1.06.53-2.66-1.45-5.24-3.49-3.57-2.83-3.99-1.8-8.74-5.24-2.78-2.02-4.17-3.03-5.24-4.37-.8-1-1.04-1.55-1.75-1.75-1.73-.48-2.87,2.1-6.12,4.37-4.09,2.85-5.61,1.1-10.48,4.37-1.65,1.11-2.43,1.95-4.37,2.62-2.09.73-4.28.83-5.24.87-.03,0,0,0-3.49,0-2.33,0-3.49,0-3.49,0-1.74.12-2.33.37-2.62,0-.43-.53.21-1.82.87-2.62.78-.94,1.37-.93,2.62-1.75,1.03-.67,1.03-.94,3.49-3.49,1.81-1.88,1.61-1.52,2.62-2.62,1.1-1.2,1.92-2.28,3.49-4.37,1.81-2.4,1.73-2.44,2.62-3.49,1.65-1.95,2.47-2.93,3.49-3.49,2.81-1.54,5.29-.27,6.12-1.75.36-.64.21-1.43,0-2.62-.28-1.56-.76-1.7-.87-2.62-.23-1.82,1.47-2.55,2.62-5.24.45-1.06.11-.76.87-4.37.68-3.21.88-3.11,1.75-6.99.18-.78.42-1.93.87-3.49.4-1.39.6-2.09.87-2.62.98-1.93,1.89-1.8,2.62-3.49.62-1.46.31-2.38.87-2.62.81-.34,2.22,1.27,2.62,1.75,1.59,1.86,2.4,3.85,3.49,7.86,1.26,4.62,1.89,6.94,1.75,8.74-.27,3.26-.87,6.12-.87,6.12-.38,1.8-.83,3.35,0,4.37.54.67,1.38.81,1.75.87,2.99.53,5.78,1.92,8.74,2.62,4.12.98,7.29,2.1,8.74,2.62,4.78,1.71,4.57,2.17,6.99,2.62,1.71.32,4.05.21,8.74,0,4.7-.21,3.53-.36,6.55-.44Z" fill="#29292d"/><path d="M150.53,308.54c-.83.24-.76.28-2.62.87-1.71.55-1.96.57-2.62.87-1,.45-1.89.85-2.62,1.75-.7.86-1.55,2.53-.87,3.49.38.55,1.21.81,1.75.87.41.05.48-.04.87,0,.86.09,1.26.6,1.75.87,1.24.68,2.99-.19,4.37-.87,1.03-.51,1.1-.73,2.62-1.75,3.23-2.16,4.16-2.01,5.24-3.49.77-1.06,1.48-2.76.87-3.49-.25-.31-.66-.35-3.49,0-2.63.33-3.97.5-5.24.87Z" fill="#fff"/><path d="M155.33,309.85c-.7.03-1.98.7-2.62,1.75-.56.91-.41,2.09,0,2.62.48.62,2.39.19,3.49-.87.31-.3.94-.91.87-1.75-.07-.92-.93-1.78-1.75-1.75Z" fill="#1a1b1b"/><path d="M153.81,311.5c-.26.01-.73.28-.97.69-.21.36-.15.83,0,1.04.18.25.88.08,1.29-.35.12-.12.35-.36.32-.69-.03-.36-.34-.71-.64-.69Z" fill="#ededed"/><polygon points="-1.61 151 450.39 151 449.39 192 -.61 191.75 -1.61 151" fill="#191919" fill-rule="evenodd" opacity=".13"/><path d="M329.69,118.24c1.07,2.12,2.86,3.17,3.57,3.57,1.4.79,2.65,1.03,3.57,1.19,1.55.27,2.58.46,3.57,0,.67-.31,1.19-.85,2.38-3.57,1.19-2.72,1.94-4.44,2.38-7.15.44-2.7.65-4.04,0-4.76-.54-.59-1.51-.86-9.53,1.19-4.6,1.18-5.33,1.54-5.96,2.38-1.57,2.12-.94,5.29,0,7.15Z" fill="#29292d"/><path d="M303.48,117.05c2.32.91,4.56,1.19,7.15,1.19,4.69,0,7.34-.93,16.67-3.57,3.72-1.05,6.85-1.89,13.1-3.57,7.72-2.07,8.58-2.24,9.53-2.38,6.61-1.02,11.96-.36,14.29,0,3.49.55,8.63,1.4,14.29,4.76,2.69,1.6,6.52,3.87,9.53,8.34,5.66,8.42,4.84,19.34,4.76,20.25-.25,2.89-.77,4.19,0,4.76,2.23,1.67,12.72-4.7,16.67-14.29,5.48-13.29-4.13-26.55-4.76-27.39-.79-1.06-8.42-10.94-20.25-11.91-6.04-.49-5.98,1.92-14.29,2.38-11.64.64-14.02-3.97-23.82-2.38-3.52.57-6.71,1.97-13.1,4.76-3.16,1.38-6.87,3.3-14.29,7.15-8.84,4.58-10.65,5.68-14.29,5.96-4.74.36-7.89-1.04-8.34,0-.52,1.21,3.15,4.39,7.15,5.96Z" fill="#d3d3d3"/><path d="M295.74,96.2c-.69,2.43-1.63,5.35-2.38,9.53-.47,2.62-.49,3.67,0,4.76,1.08,2.42,3.85,3.29,4.76,3.57,2.57.81,4.93.5,10.72-1.19,5.95-1.74,10.28-3.4,10.72-3.57,6.77-2.62,10.15-3.93,13.1-5.96,3.1-2.12,3.9-3.36,7.15-4.76,2.32-1,5.26-2.22,8.34-1.19,1.9.64,3.12,1.89,4.76,3.57,1.08,1.11,2.02,2.3,3.57,4.76,3.57,5.66,2.82,6.07,4.76,8.34.84.98,3.86,4.5,8.34,4.76.91.05,3.04.18,4.76-1.19,1.86-1.47,2.13-3.78,2.38-5.96.08-.7.44-4.15-1.19-8.34-1.08-2.77-2.55-4.64-2.38-4.76.17-.12,1.33,1.79,3.57,3.57,1.79,1.42,4.9,3.27,5.96,2.38.77-.65.25-2.62,0-3.57-.56-2.13-1.52-2.74-1.19-3.57.38-.97,2.19-1.35,3.57-1.19,2.51.28,3.99,2.34,5.96,4.76,6.22,7.65,6.92,6.14,9.53,10.72,1.46,2.56,2.16,4.88,3.57,9.53,2.41,7.94,1.84,10.4,1.19,11.91-.18.42-1.58,3.59-3.57,3.57-1.55,0-2.65-1.94-3.57-3.57-1.84-3.23-.6-5.08-2.38-8.34-.5-.91-1.7-3.11-2.98-2.98-1.45.15-2.61,3.27-2.38,5.96.15,1.72.83,2.82,1.19,3.57,1.77,3.7.18,7.64-1.19,11.91-1.02,3.18-1.66,5.17-3.57,7.15-2.07,2.15-4.41,3-5.96,3.57-3.42,1.26-6.34,1.23-8.34,1.19-3.65-.07-3.78-.75-8.34-1.19-3.16-.3-5.41-.2-9.53,0-3.5.17-.84.22-9.53,1.19-1.82.2-3.26.35-3.57,1.19-.44,1.18,1.65,2.95,2.38,3.57,3.18,2.7,5.52,2.59,10.72,4.76.04.02,2.41,1.2,7.15,3.57,4.26,2.13,5.83,2.92,8.34,3.57,2.79.73,5.55,1.41,7.15,0,.85-.75,1.04-1.81,2.38-2.38.78-.33,1.99-.52,2.38,0,.23.3.15.8-1.19,3.57-.98,2.02-.99,1.87-1.19,2.38-.96,2.46-.29,4.91,0,5.96.79,2.88,1.81,2.46,2.38,4.76.83,3.32-.61,6.89-1.19,8.34-.36.89-.86,1.91-1.19,3.57-.46,2.28-.1,3.3,0,3.57.06.15.87,2.22,2.38,2.38,1.07.12,1.96-.77,2.38-1.19,7.02-6.96,6.96-6.87,7.15-7.15,1.07-1.57,3.55-5.28,4.76-10.72,0,0,1.45-6.48,0-15.48-.09-.56-.32-1.9,0-3.57.45-2.37,1.74-3.98,2.38-4.76,4.38-5.3,8.56-7.39,11.91-11.91,1.29-1.74,2.05-3.54,3.57-7.15,1.85-4.38,4.74-11.2,5.96-20.25.73-5.43,1.84-13.69-1.19-23.82-1.68-5.6-4.5-15.02-11.91-20.25-3.7-2.61-6.78-6.1-10.72-8.34-1.07-.61-2.92-1.6-3.57-3.57-.24-.74-.47-2.07,1.19-5.96,1.47-3.43,3.32-6.29,4.76-8.34,2.79-3.97,3.95-4.8,3.57-5.96-.64-1.96-4.84-2.23-7.15-2.38-3.84-.25-6.8.49-9.53,1.19-5,1.29-8.61,3.1-9.53,3.57-4.69,2.4-8.34,4.76-8.34,4.76-1.97,1.28-3.65,2.48-5.96,2.38-1.75-.07-3-.86-3.57-1.19-5.96-3.44-15.45-1.65-17.87-1.19-5.49,1.04-9.29,3.24-11.91,4.76-6.76,3.93-6.25,6.05-13.1,9.53-3.4,1.73-5.47,2.19-8.34,4.76-2.26,2.03-3.55,4.04-4.76,5.96-.57.9-2.96,4.73-4.76,10.72-1.1,3.65-.46,3.04-1.79,7.74Z" fill="#29292d"/><path d="M322.54,89.65c-1.16.6-1.45.82-2.38,1.19-1.83.72-2.32.51-3.57,1.19-.67.37-1.86,1.04-2.38,2.38-.07.19-.66,1.68,0,2.38.61.65,1.75.03,3.57,0,2.55-.05,2.84,1.13,4.76,1.19,2.4.08,4.38-1.93,8.34-5.96,2.36-2.4,2.55-3.09,2.38-3.57-.42-1.18-3.08-1.39-4.76-1.19-1.76.21-3.19.95-5.96,2.38Z" fill="#d3d3d3"/><path d="M392.81,155.16c.72.6.94,1.42,1.19,2.38.56,2.13.16,3.92,0,4.76-.06.34-.04,3,0,8.34.06,7.83.36,7.65,0,9.53-.34,1.75-.39.84-2.38,7.15-.82,2.59-1.23,4.06-2.38,5.96-.52.86-2.39,3.92-3.57,3.57-.83-.24-.98-2.05-1.19-4.76-.2-2.51-.09-4.75,0-5.96.22-3.13.61-4.17,0-5.96-.51-1.5-.96-1.29-1.19-2.38-.54-2.55,1.94-3.66,2.38-7.15.05-.42.46-3.66-1.19-4.76-1.66-1.11-4.59.46-5.96,1.19-2.15,1.16-2.1,1.86-3.57,2.38-.83.3-2.15.54-7.15-1.19-1.89-.65-4.73-1.65-8.34-3.57-3.03-1.61-2.36-1.63-5.96-3.57-2.41-1.31-3.65-1.81-3.57-2.38.11-.8,2.74-1.2,4.76-1.19,2.41.01,3.7.6,9.53,2.38,3.71,1.13,4.16,1.19,4.76,1.19,2.01,0,2.43-.65,7.15-2.38,3.27-1.2,3.14-.92,7.15-2.38,1.56-.57,2.26-.86,3.57-1.19,2.48-.62,4.61-1.12,5.96,0Z" fill="#d3d3d3"/><path d="M321.94,95.01c-1.38-.93-3.12-.19-3.57,0-1,.43-2.56,1.49-2.38,2.38.21,1.08,2.87,1.49,4.76,1.19.83-.13,2.08-.33,2.38-1.19.3-.85-.46-1.89-1.19-2.38Z" fill="#1a1b1b"/><path d="M319.29,96.03c-.46-.53-1.04-.11-1.19,0-.33.24-.85.85-.79,1.36.07.62.95.85,1.58.68.27-.07.69-.19.79-.68.1-.48-.15-1.08-.4-1.36Z" fill="#fff"/></svg>