<?xml version="1.0" encoding="UTF-8"?><svg id="a" xmlns="http://www.w3.org/2000/svg" viewBox="0 0 50 50"><path d="M20.42,20.78c-.02.2-.06.46-.12.78-.14.82-.36,1.35-.72,2.17-.37.83-.53.99-.73,1.09-.3.14-.61.08-1.08,0-.28-.06-.66-.13-1.09-.37-.21-.12-.76-.44-1.09-1.08-.16-.32-.29-.77-.29-1.21.97-.27,1.9-.53,3.56-.97.68-.19,1.19-.31,1.57-.41Z" fill="#29292d"/><path d="M39.9,27.73c-1.21,2.92-4.41,4.86-5.08,4.36-.23-.18-.08-.58,0-1.45.02-.22.19-2.53-.72-4.79.05-.69.35-1.34.72-1.38.38-.04.75.63.91.91.54.99.17,1.56.72,2.54.28.5.61,1.08,1.09,1.09.6,0,1.03-.97,1.08-1.09.2-.46.37-1.21-.36-3.63-.43-1.41-.64-2.13-1.09-2.91-.79-1.39-1-.94-2.9-3.27-.6-.74-1.05-1.36-1.81-1.45-.43-.05-.97.07-1.09.36-.1.25.19.45.36,1.09.08.29.23.89,0,1.09-.32.27-1.27-.29-1.81-.73-.68-.54-1.03-1.12-1.08-1.08-.06.03.39.6.72,1.45.5,1.27.39,2.32.36,2.53,0,.08-.02.16-.03.23-1.49-.77-2.84-.99-3.78-1.14-.39-.06-1.04-.15-1.9-.16-.12-.21-.26-.46-.45-.75-.48-.75-.76-1.11-1.09-1.45-.51-.52-.88-.9-1.45-1.09-.94-.31-1.83.06-2.53.37-.99.42-1.24.8-2.18,1.45-.9.61-1.93,1.01-3.99,1.81-.14.05-1.45.56-3.27,1.08-1.68.49-2.41.6-3.15.39-.47-.37-.75-.74-.66-.94.14-.31,1.1.12,2.54,0,1.1-.08,1.66-.42,4.35-1.81,2.26-1.17,3.39-1.75,4.36-2.17,1.94-.85,2.92-1.28,3.99-1.45,2.99-.49,3.71.93,7.26.73,2.53-.15,2.51-.88,4.35-.73,3.61.3,5.93,3.31,6.17,3.63.19.26,3.12,4.3,1.45,8.35Z" fill="#d3d3d3"/><path d="M42.8,17.21c-.51-1.71-1.36-4.57-3.63-6.17-1.12-.79-2.07-1.85-3.27-2.53-.32-.19-.89-.49-1.08-1.09-.08-.22-.15-.62.36-1.81.45-1.04,1.01-1.91,1.45-2.53.85-1.21,1.2-1.46,1.08-1.81-.19-.59-1.47-.68-2.17-.73-1.17-.08-2.07.15-2.91.36-1.52.4-2.62.95-2.9,1.09-1.43.73-2.54,1.45-2.54,1.45-.6.39-1.11.75-1.81.72-.54-.02-.92-.25-1.09-.36-1.81-1.04-4.7-.5-5.44-.36-1.67.31-2.83.98-3.63,1.45-2.06,1.2-1.9,1.84-3.99,2.91-1.04.53-1.67.66-2.54,1.44-.69.62-1.08,1.24-1.45,1.81-.17.27-.9,1.44-1.45,3.27-.33,1.11-.14.93-.54,2.36-.21.74-.5,1.63-.73,2.91-.14.8-.15,1.12,0,1.45.33.73,1.18,1,1.45,1.08.04,0,.08.02.12.03.74.21,1.47.1,3.15-.39,1.81-.53,3.13-1.03,3.27-1.08,2.06-.8,3.09-1.2,3.99-1.81.95-.65,1.19-1.03,2.18-1.45.7-.31,1.6-.68,2.53-.37.58.19.95.58,1.45,1.09.33.34.61.7,1.09,1.45.19.29.33.54.45.75.58,1.03.51,1.22.99,1.78.26.3,1.18,1.37,2.54,1.45.27.02.93.06,1.45-.36.5-.4.61-.99.69-1.58,0-.08.02-.16.03-.23.03-.21.14-1.27-.36-2.53-.33-.85-.78-1.42-.72-1.45.05-.04.4.55,1.08,1.08.55.44,1.49,1,1.81.73.23-.2.08-.8,0-1.09-.17-.64-.46-.84-.36-1.09.12-.29.66-.41,1.09-.36.76.09,1.21.71,1.81,1.45,1.89,2.33,2.11,1.87,2.9,3.27.45.78.66,1.49,1.09,2.91.73,2.42.57,3.17.36,3.63-.05.13-.48,1.09-1.08,1.09-.48,0-.81-.59-1.09-1.09-.56-.98-.19-1.55-.72-2.54-.16-.27-.53-.95-.91-.91-.37.05-.67.69-.72,1.38-.02.15-.02.28,0,.43.05.53.25.87.36,1.09.55,1.13.06,2.33-.36,3.63-.31.97-.51,1.58-1.09,2.17-.62.66-1.34.92-1.81,1.09-1.03.38-1.93.38-2.53.36-1.11-.02-1.15-.22-2.54-.36-.96-.09-1.64-.06-2.9,0-1.07.05-.26.07-2.91.36-.56.07-.99.11-1.09.37-.13.35.51.9.73,1.08.97.83,1.68.79,3.27,1.45,0,0,.73.37,2.17,1.09,1.3.64,1.77.89,2.54,1.08.85.22,1.69.43,2.17,0,.25-.22.31-.55.72-.72.24-.1.6-.16.73,0,.07.09.04.24-.37,1.09-.29.61-.3.57-.36.72-.29.75-.09,1.49,0,1.81.24.88.56.75.73,1.45.25,1.01-.19,2.1-.37,2.53-.11.27-.25.58-.36,1.09-.14.69-.03,1,0,1.09.02.04.26.67.73.72.32.04.59-.23.72-.36,2.14-2.13,2.13-2.1,2.17-2.17.33-.48,1.08-1.61,1.45-3.27,0,0,.44-1.98,0-4.72-.03-.18-.1-.58,0-1.09.14-.72.53-1.21.73-1.45,1.33-1.61,2.6-2.24,3.63-3.63.39-.53.62-1.07,1.08-2.17.57-1.34,1.44-3.41,1.81-6.17.22-1.65.57-4.17-.36-7.25ZM10.87,16.11c.17-.41.53-.6.73-.72.38-.2.53-.15,1.09-.36.28-.12.37-.19.72-.36.84-.44,1.28-.66,1.81-.73.52-.06,1.33,0,1.45.36.05.16,0,.36-.73,1.09-1.17,1.2-1.77,1.81-2.49,1.81.06-.06.11-.12.14-.19.09-.25-.15-.58-.37-.72-.42-.28-.95-.06-1.08,0-.26.11-.64.36-.71.6-.25.04-.44.07-.57-.06-.19-.21-.02-.67,0-.73ZM12.54,17.02c-.03.16-.16.19-.24.21-.19.05-.46-.02-.48-.21,0-.06,0-.11.04-.17.05-.1.14-.19.19-.24.05-.04.22-.17.37,0,.06.07.12.19.13.31,0,.03,0,.07,0,.1ZM35.18,39.34c.02,2.39.11,2.33,0,2.91-.11.53-.12.25-.73,2.17-.24.79-.37,1.24-.72,1.81-.16.26-.73,1.2-1.09,1.09-.25-.08-.29-.62-.36-1.45-.06-.77-.03-1.44,0-1.81.07-.96.19-1.28,0-1.81-.16-.46-.29-.4-.36-.73-.17-.77.59-1.11.72-2.17.02-.13.15-1.11-.36-1.45-.51-.34-1.39.15-1.81.36-.65.36-.64.57-1.09.73-.25.09-.65.17-2.17-.36-.58-.2-1.44-.51-2.53-1.09-.93-.49-.72-.5-1.81-1.09-.74-.39-1.12-.55-1.09-.72.03-.24.83-.37,1.45-.36.73,0,1.12.19,2.9.72,1.13.35,1.28.36,1.45.36.61,0,.74-.19,2.18-.72.99-.37.96-.28,2.17-.72.48-.18.68-.26,1.08-.37.76-.19,1.4-.34,1.82,0,.21.19.28.44.36.73.17.64.05,1.19,0,1.45-.02.1-.02.91,0,2.53Z" fill="#29292d"/></svg>