<?xml version="1.0" encoding="UTF-8"?><svg id="a" xmlns="http://www.w3.org/2000/svg" viewBox="0 0 56 60"><path d="M49.47,36.42c.14.07-.08.51,0,1.45.03.32.06.39.29,1.45.19.87.28,1.31.29,1.45.06.81-.13,1.46-.29,2.03-.19.68-.42,1.14-.58,1.45-.33.64-.5.97-.87,1.16-.35.18-.87.24-1.16,0-.15-.12-.13-.24-.29-.58-.1-.22-.19-.35-.58-.87-.86-1.15-.82-1.06-.87-1.16-.14-.26-.52-.98-.29-1.74.02-.08.12-.36.58-.87.59-.64,1.15-.96,1.45-1.16,1.59-1.04,2.05-2.73,2.32-2.61Z" fill="#29292d"/><path d="M54.98,27.14c.02.24.02.53-.58,2.32-.42,1.25-.64,1.88-.87,2.32-.45.84-.91,1.39-1.45,2.03-.85,1-1.54,1.58-2.03,2.03-2.33,2.13-2.11,2.89-4.06,4.64-.34.31-1.59,1.39-3.48,2.32-1.71.84-3.77,1.85-6.09,1.45-.75-.13-1.13-.34-2.61-.58-1.2-.2-1.88-.22-2.61-.29-2.28-.23-4.06-.93-4.64-1.16-1.61-.64-2.72-1.39-4.93-2.9-.17-.11-.61-.42-1.16-.87-.99-.81-1.48-1.22-1.74-1.74-.55-1.12-.25-2.93.87-3.77,1.1-.82,2.55-.37,3.77,0,2.09.64,3.38,1.78,4.06,2.32,3.97,3.13,10.66,3.98,12.76,1.74.94-1.01.02-1.65.87-3.77,1.33-3.32,4.04-2.84,10.15-7.25.57-.41,1.99-1.54,2.9-1.16.76.31.81,1.64.87,2.32Z" fill="#d3d3d3"/><path d="M28.74,30.19c.78-.02,1.46,0,2.32-.29.59-.2.79-.38.87-.58.08-.2.07-.46-.29-1.16-.45-.87-.95-1.49-1.16-1.74-.62-.75-.85-.87-1.16-1.45-.23-.43-.46-.86-.29-1.16.18-.33.74-.32,1.74-.29.76.02,1.42.04,2.32.29.31.09,1.1.33,2.03.87,1.4.82,1.77,1.54,2.61,1.45.1-.01.35-.1.87-.29.72-.26,1.25-.49,1.45-.58,2.3-1.01,2.19-1.02,2.61-1.16.58-.19,1.35-.22,2.9-.29,1.43-.06,2.44-.04,3.77,0,.55.02,1.71.05,3.19.29,1,.16,1.64.33,2.03.87.33.45.43,1.07.29,1.16-.11.06-.27-.22-.58-.29-.48-.1-.88.38-1.45.87-.48.41-1.09.76-2.32,1.45-.89.5-1.04.42-1.74.87-.58.38-1,.75-1.3,1.01-.81.73-.81.9-1.45,1.45-.6.52-1.14.82-1.74,1.16-1.06.6-1.38.6-2.03,1.16-.61.52-.79.9-.87,1.16-.06.19-.22.68,0,1.16.23.52.77.72,1.16.87.59.22.77.11,1.74.29.75.14,1.38.26,1.45.58.05.25-.29.39-.58.87-.3.5-.2.81-.29,1.74-.09.99-.31,1.7-.58,2.61-.31,1.03-.51,1.34-.58,1.45-.08.12-.19.27-1.16,1.16-.87.8-1.11.98-1.45,1.16-.44.23-.88.46-1.16.29-.28-.17-.14-.58-.29-1.45-.06-.32-.23-.79-.58-1.74-.51-1.38-.6-1.42-.58-1.74.02-.4.17-.6.87-1.74.29-.48.56-.98.87-1.45.18-.28.35-.52.29-.58-.06-.06-.36.1-.58.29-.29.25-.37.49-.58.87-.26.47-.49.9-.87,1.16-.22.16-.5.26-1.16.29-1.39.07-2.48-.25-2.61-.29-1.3-.4-1.21-.7-2.61-1.16-1.21-.4-1.35-.19-2.03-.58-.54-.3-.61-.52-1.74-1.74-.83-.89-1.24-1.33-1.74-1.74-.69-.56-1.23-.86-2.32-1.45-1.57-.86-2.02-.89-2.32-.87-.24.01-.91.06-1.45.58-.1.1-.55.53-.58,1.16-.02.4.16.39.29,1.16.11.62.05.96,0,1.16-.08.29-.13.5-.29.58-.35.17-.88-.48-1.74-1.16-1.19-.94-1.32-.6-2.9-1.74-.92-.67-1.39-1.01-1.74-1.45-.26-.33-.34-.51-.58-.58-.57-.16-.95.7-2.03,1.45-1.36.95-1.86.36-3.48,1.45-.55.37-.8.65-1.45.87-.69.24-1.42.27-1.74.29-.01,0,0,0-1.16,0-.77,0-1.16,0-1.16,0-.58.04-.77.12-.87,0-.14-.18.07-.6.29-.87.26-.31.46-.31.87-.58.34-.22.34-.31,1.16-1.16.6-.62.54-.51.87-.87.37-.4.64-.75,1.16-1.45.6-.8.58-.81.87-1.16.55-.65.82-.97,1.16-1.16.93-.51,1.76-.09,2.03-.58.12-.21.07-.48,0-.87-.09-.52-.25-.56-.29-.87-.08-.6.49-.85.87-1.74.15-.35.04-.25.29-1.45.23-1.06.29-1.03.58-2.32.06-.26.14-.64.29-1.16.13-.46.2-.69.29-.87.32-.64.63-.6.87-1.16.21-.48.1-.79.29-.87.27-.11.74.42.87.58.53.62.8,1.28,1.16,2.61.42,1.53.63,2.3.58,2.9-.09,1.08-.29,2.03-.29,2.03-.13.6-.28,1.11,0,1.45.18.22.46.27.58.29.99.18,1.92.64,2.9.87,1.37.32,2.42.7,2.9.87,1.59.57,1.52.72,2.32.87.57.11,1.34.07,2.9,0,1.56-.07,1.17-.12,2.17-.14Z" fill="#29292d"/><path d="M43.97,28.88c-.27.08-.25.09-.87.29-.57.18-.65.19-.87.29-.33.15-.63.28-.87.58-.23.28-.51.84-.29,1.16.13.18.4.27.58.29.14.02.16-.01.29,0,.28.03.42.2.58.29.41.23.99-.06,1.45-.29.34-.17.37-.24.87-.58,1.07-.72,1.38-.67,1.74-1.16.26-.35.49-.92.29-1.16-.08-.1-.22-.12-1.16,0-.87.11-1.32.17-1.74.29Z" fill="#d3d3d3"/><path d="M45.56,29.32c-.23,0-.66.23-.87.58-.19.3-.13.69,0,.87.16.21.79.06,1.16-.29.1-.1.31-.3.29-.58-.02-.3-.31-.59-.58-.58Z" fill="#1a1b1b"/><path d="M45.06,29.86c-.09,0-.24.09-.32.23-.07.12-.05.28,0,.34.06.08.29.03.43-.11.04-.04.11-.12.11-.23,0-.12-.11-.23-.21-.23Z" fill="#ededed"/></svg>