<?xml version="1.0" encoding="UTF-8"?><svg id="a" xmlns="http://www.w3.org/2000/svg" viewBox="0 0 30 30"><path d="M12.93,12.51c-.01.12-.03.27-.07.46-.08.48-.21.8-.43,1.29-.22.49-.31.59-.43.65-.18.08-.36.05-.64,0-.17-.03-.39-.08-.65-.22-.13-.07-.45-.26-.65-.64-.09-.19-.17-.46-.17-.72.57-.16,1.13-.31,2.11-.58.4-.11.7-.18.93-.24Z" fill="#29292d"/><path d="M24.46,16.61c-.72,1.73-2.61,2.88-3.01,2.58-.14-.1-.05-.34,0-.86.01-.13.12-1.5-.43-2.83.03-.41.21-.79.43-.82.23-.02.44.38.54.54.32.59.1.92.43,1.51.17.29.36.64.65.65.36,0,.61-.57.64-.65.12-.27.22-.72-.21-2.15-.25-.84-.38-1.26-.65-1.72-.47-.83-.59-.55-1.71-1.93-.36-.44-.62-.81-1.07-.86-.25-.03-.58.04-.65.21-.06.15.12.27.21.65.05.17.14.53,0,.65-.19.16-.75-.17-1.07-.43-.4-.32-.61-.66-.64-.64-.03.02.23.36.43.86.29.75.23,1.37.21,1.5,0,.05-.01.09-.02.14-.88-.46-1.68-.59-2.24-.68-.23-.03-.62-.09-1.13-.09-.07-.13-.16-.27-.27-.44-.28-.44-.45-.66-.65-.86-.3-.31-.52-.53-.86-.65-.55-.18-1.08.03-1.5.22-.59.25-.73.47-1.29.86-.53.36-1.14.6-2.36,1.07-.08.03-.86.33-1.93.64-.99.29-1.43.36-1.86.23-.28-.22-.44-.44-.39-.55.08-.18.65.07,1.51,0,.65-.05.98-.25,2.57-1.07,1.34-.69,2.01-1.04,2.58-1.29,1.15-.5,1.73-.76,2.36-.86,1.77-.29,2.2.55,4.3.43,1.49-.09,1.48-.52,2.57-.43,2.13.18,3.51,1.96,3.65,2.15.12.16,1.85,2.54.86,4.94Z" fill="#d3d3d3"/><path d="M26.18,10.39c-.3-1.01-.81-2.71-2.15-3.65-.66-.47-1.22-1.1-1.93-1.5-.19-.11-.53-.29-.64-.65-.05-.13-.09-.37.21-1.07.27-.62.6-1.13.86-1.5.5-.72.71-.87.64-1.07-.12-.35-.87-.4-1.29-.43-.69-.05-1.22.09-1.72.21-.9.24-1.55.56-1.71.65-.85.43-1.51.86-1.51.86-.36.23-.66.44-1.07.43-.32-.01-.54-.15-.65-.21-1.07-.62-2.78-.29-3.22-.21-.99.18-1.67.58-2.15.86-1.22.71-1.13,1.09-2.36,1.72-.62.31-.99.39-1.51.85-.41.37-.64.73-.86,1.07-.1.16-.53.85-.86,1.93-.2.66-.08.55-.32,1.4-.13.44-.29.96-.43,1.72-.08.47-.09.66,0,.86.2.43.7.59.86.64.02,0,.05.01.07.02.44.13.87.06,1.86-.23,1.07-.31,1.85-.61,1.93-.64,1.22-.47,1.83-.71,2.36-1.07.56-.39.7-.61,1.29-.86.42-.18.95-.4,1.5-.22.34.12.56.34.86.65.2.2.36.42.65.86.11.17.2.32.27.44.35.61.3.72.59,1.06.16.18.7.81,1.51.86.16.01.55.03.86-.21.29-.24.36-.59.41-.93,0-.05.01-.09.02-.14.02-.13.08-.75-.21-1.5-.2-.5-.46-.84-.43-.86.03-.02.24.32.64.64.32.26.88.59,1.07.43.14-.12.05-.47,0-.65-.1-.38-.27-.5-.21-.65.07-.17.39-.24.65-.21.45.05.72.42,1.07.86,1.12,1.38,1.25,1.11,1.71,1.93.27.46.39.88.65,1.72.43,1.43.33,1.88.21,2.15-.03.08-.28.65-.64.65-.28,0-.48-.35-.65-.65-.33-.58-.11-.92-.43-1.51-.09-.16-.31-.56-.54-.54-.22.03-.4.41-.43.82-.01.09-.01.17,0,.25.03.31.15.51.21.65.32.67.03,1.38-.21,2.15-.18.57-.3.93-.65,1.29-.37.39-.79.54-1.07.65-.61.23-1.14.23-1.5.21-.66-.01-.68-.13-1.51-.21-.57-.05-.97-.03-1.71,0-.63.03-.16.04-1.72.21-.33.04-.59.06-.65.22-.08.21.3.53.43.64.57.49.99.47,1.93.86,0,0,.43.22,1.29.65.77.38,1.05.53,1.51.64.5.13,1,.25,1.29,0,.15-.13.18-.32.43-.43.14-.06.36-.09.43,0,.04.05.02.14-.22.65-.17.36-.18.33-.21.43-.17.44-.05.88,0,1.07.14.52.33.44.43.86.15.6-.11,1.24-.22,1.5-.06.16-.15.35-.21.65-.08.41-.02.59,0,.65.01.02.16.4.43.43.19.02.35-.14.43-.21,1.26-1.26,1.26-1.24,1.29-1.29.2-.28.64-.95.86-1.93,0,0,.26-1.17,0-2.79-.02-.1-.06-.34,0-.65.08-.43.31-.72.43-.86.78-.95,1.54-1.33,2.15-2.15.23-.31.37-.63.64-1.29.33-.79.85-2.02,1.07-3.65.13-.98.33-2.47-.21-4.29ZM7.28,9.74c.1-.24.31-.36.43-.43.23-.12.31-.09.65-.21.17-.07.22-.11.43-.21.5-.26.76-.39,1.07-.43.31-.03.78,0,.86.21.03.09,0,.21-.43.65-.69.71-1.05,1.07-1.47,1.07.03-.03.06-.07.08-.11.05-.15-.09-.34-.22-.43-.25-.17-.56-.03-.64,0-.16.06-.38.21-.42.36-.15.02-.26.04-.33-.03-.12-.13-.01-.4,0-.43ZM8.27,10.28c-.02.09-.09.11-.14.13-.12.03-.27-.01-.28-.13,0-.03,0-.06.02-.1.03-.06.08-.12.12-.14.03-.02.13-.1.22,0,.03.04.07.12.08.18,0,.02,0,.04,0,.06ZM21.67,23.49c.01,1.41.06,1.38,0,1.72-.06.31-.07.15-.43,1.29-.14.47-.22.73-.43,1.07-.09.16-.43.71-.65.65-.15-.05-.17-.37-.21-.86-.03-.46-.02-.85,0-1.07.04-.57.11-.76,0-1.07-.09-.27-.17-.24-.21-.43-.1-.46.35-.66.43-1.29.01-.08.09-.66-.21-.86-.3-.2-.83.09-1.07.21-.39.21-.38.33-.65.43-.15.05-.39.1-1.29-.21-.34-.12-.85-.3-1.5-.65-.55-.29-.43-.29-1.07-.65-.44-.23-.66-.32-.65-.43.02-.14.49-.22.86-.21.43,0,.66.11,1.71.43.67.21.76.21.86.21.36,0,.44-.12,1.29-.43.59-.22.57-.17,1.29-.43.28-.1.4-.16.64-.22.45-.11.83-.2,1.08,0,.13.11.17.26.21.43.1.38.03.7,0,.86-.01.06-.01.54,0,1.5Z" fill="#29292d"/></svg>