<?xml version="1.0" encoding="UTF-8"?><svg id="a" xmlns="http://www.w3.org/2000/svg" viewBox="0 0 56 60"><path d="M19.46,28.33c.33.66.89.99,1.12,1.12.44.25.83.32,1.12.37.49.09.81.14,1.12,0,.21-.1.37-.27.74-1.12.37-.85.61-1.39.74-2.23.14-.84.2-1.26,0-1.49-.17-.18-.47-.27-2.98.37-1.44.37-1.67.48-1.86.74-.49.66-.29,1.65,0,2.23Z" fill="#29292d"/><path d="M11.28,27.96c.73.28,1.42.37,2.23.37,1.47,0,2.29-.29,5.21-1.12,1.16-.33,2.14-.59,4.09-1.12,2.41-.65,2.68-.7,2.98-.74,2.07-.32,3.74-.11,4.47,0,1.09.17,2.7.44,4.47,1.49.84.5,2.04,1.21,2.98,2.6,1.77,2.63,1.51,6.04,1.49,6.33-.08.9-.24,1.31,0,1.49.7.52,3.97-1.47,5.21-4.47,1.71-4.15-1.29-8.29-1.49-8.56-.25-.33-2.63-3.42-6.33-3.72-1.89-.15-1.87.6-4.47.74-3.64.2-4.38-1.24-7.44-.74-1.1.18-2.1.62-4.09,1.49-.99.43-2.15,1.03-4.47,2.23-2.76,1.43-3.33,1.77-4.47,1.86-1.48.11-2.46-.33-2.6,0-.16.38.98,1.37,2.23,1.86Z" fill="#d3d3d3"/><path d="M8.86,21.45c-.21.76-.51,1.67-.74,2.98-.15.82-.15,1.15,0,1.49.34.75,1.2,1.03,1.49,1.12.8.25,1.54.16,3.35-.37,1.86-.54,3.21-1.06,3.35-1.12,2.11-.82,3.17-1.23,4.09-1.86.97-.66,1.22-1.05,2.23-1.49.72-.31,1.65-.69,2.6-.37.59.2.97.59,1.49,1.12.34.35.63.72,1.12,1.49,1.11,1.77.88,1.9,1.49,2.6.26.31,1.21,1.41,2.6,1.49.28.02.95.06,1.49-.37.58-.46.66-1.18.74-1.86.03-.22.14-1.3-.37-2.6-.34-.87-.8-1.45-.74-1.49.05-.04.42.56,1.12,1.12.56.44,1.53,1.02,1.86.74.24-.2.08-.82,0-1.12-.18-.66-.47-.86-.37-1.12.12-.3.68-.42,1.12-.37.78.09,1.25.73,1.86,1.49,1.94,2.39,2.16,1.92,2.98,3.35.46.8.68,1.52,1.12,2.98.75,2.48.57,3.25.37,3.72-.06.13-.5,1.12-1.12,1.12-.48,0-.83-.61-1.12-1.12-.57-1.01-.19-1.59-.74-2.6-.15-.28-.53-.97-.93-.93-.45.05-.82,1.02-.74,1.86.05.54.26.88.37,1.12.55,1.16.06,2.39-.37,3.72-.32.99-.52,1.61-1.12,2.23-.65.67-1.38.94-1.86,1.12-1.07.39-1.98.38-2.6.37-1.14-.02-1.18-.24-2.6-.37-.99-.09-1.69-.06-2.98,0-1.09.05-.26.07-2.98.37-.57.06-1.02.11-1.12.37-.14.37.51.92.74,1.12.99.84,1.72.81,3.35,1.49.01,0,.75.38,2.23,1.12,1.33.67,1.82.91,2.6,1.12.87.23,1.73.44,2.23,0,.27-.24.32-.57.74-.74.24-.1.62-.16.74,0,.07.09.05.25-.37,1.12-.31.63-.31.58-.37.74-.3.77-.09,1.53,0,1.86.25.9.56.77.74,1.49.26,1.04-.19,2.15-.37,2.6-.11.28-.27.6-.37,1.12-.14.71-.03,1.03,0,1.12.02.05.27.69.74.74.33.04.61-.24.74-.37,2.19-2.18,2.18-2.15,2.23-2.23.33-.49,1.11-1.65,1.49-3.35,0,0,.45-2.03,0-4.84-.03-.18-.1-.59,0-1.12.14-.74.54-1.24.74-1.49,1.37-1.66,2.67-2.31,3.72-3.72.4-.54.64-1.11,1.12-2.23.58-1.37,1.48-3.5,1.86-6.33.23-1.7.58-4.28-.37-7.44-.52-1.75-1.41-4.69-3.72-6.33-1.16-.82-2.12-1.91-3.35-2.6-.33-.19-.91-.5-1.12-1.12-.08-.23-.15-.65.37-1.86.46-1.07,1.04-1.97,1.49-2.6.87-1.24,1.24-1.5,1.12-1.86-.2-.61-1.51-.7-2.23-.74-1.2-.08-2.12.15-2.98.37-1.56.4-2.69.97-2.98,1.12-1.46.75-2.6,1.49-2.6,1.49-.62.4-1.14.77-1.86.74-.55-.02-.94-.27-1.12-.37-1.86-1.07-4.83-.51-5.58-.37-1.71.32-2.9,1.01-3.72,1.49-2.11,1.23-1.95,1.89-4.09,2.98-1.06.54-1.71.69-2.6,1.49-.71.63-1.11,1.26-1.49,1.86-.18.28-.92,1.48-1.49,3.35-.34,1.14-.14.95-.56,2.42Z" fill="#29292d"/><path d="M17.23,19.4c-.36.19-.45.26-.74.37-.57.23-.73.16-1.12.37-.21.12-.58.32-.74.74-.02.06-.21.53,0,.74.19.2.55.01,1.12,0,.8-.01.89.35,1.49.37.75.03,1.37-.6,2.6-1.86.74-.75.8-.96.74-1.12-.13-.37-.96-.43-1.49-.37-.55.07-1,.3-1.86.74Z" fill="#d3d3d3"/><path d="M39.19,39.87c.23.19.29.44.37.74.18.66.05,1.23,0,1.49-.02.11-.01.94,0,2.6.02,2.45.11,2.39,0,2.98-.1.55-.12.26-.74,2.23-.26.81-.38,1.27-.74,1.86-.16.27-.75,1.22-1.12,1.12-.26-.08-.3-.64-.37-1.49-.06-.79-.03-1.48,0-1.86.07-.98.19-1.3,0-1.86-.16-.47-.3-.4-.37-.74-.17-.8.61-1.14.74-2.23.02-.13.14-1.14-.37-1.49-.52-.35-1.43.14-1.86.37-.67.36-.66.58-1.12.74-.26.09-.67.17-2.23-.37-.59-.2-1.48-.52-2.6-1.12-.95-.5-.74-.51-1.86-1.12-.75-.41-1.14-.57-1.12-.74.03-.25.85-.38,1.49-.37.75,0,1.15.19,2.98.74,1.16.35,1.3.37,1.49.37.63,0,.76-.2,2.23-.74,1.02-.38.98-.29,2.23-.74.49-.18.71-.27,1.12-.37.78-.19,1.44-.35,1.86,0Z" fill="#d3d3d3"/><path d="M17.04,21.07c-.43-.29-.97-.06-1.12,0-.31.13-.8.46-.74.74.07.34.9.47,1.49.37.26-.04.65-.1.74-.37.09-.26-.14-.59-.37-.74Z" fill="#1a1b1b"/><path d="M16.22,21.39c-.14-.17-.32-.03-.37,0-.1.08-.27.27-.25.43.02.19.3.27.49.21.09-.02.22-.06.25-.21.03-.15-.05-.34-.12-.43Z" fill="#fff"/></svg>