<?xml version="1.0" encoding="UTF-8"?><svg id="a" xmlns="http://www.w3.org/2000/svg" viewBox="0 0 30 30"><path d="M24.22,19.68c-.08.37.11.72.17.85.03.05,0,0,.47.62.21.28.26.35.31.47.09.18.08.24.16.31.16.13.44.1.62,0,.2-.1.3-.28.47-.62.09-.17.21-.41.31-.78.09-.31.19-.66.16-1.09,0-.08-.05-.31-.16-.78-.12-.57-.14-.61-.16-.78-.04-.51.08-.74,0-.78t-.01,0s-.09.06-.16.17h0c-.15.24-.39.7-.84,1.07,0,0,0,0,0,0l-1.33,1.35Z" fill="#29292d"/><line x1="25.56" y1="18.33" x2="24.22" y2="19.68" fill="none"/><path d="M29.08,10.85c-.49-.2-1.25.4-1.56.62-.9.65-1.66,1.1-2.31,1.45.05.15-.06.41-.18.58-.08.11-.16.18-.27.24.03-.04.04-.1.04-.16-.02-.14-.12-.27-.25-.31h0c-.17.09-.33.17-.48.25h0s-.03.04-.04.05c-.1.16-.08.37,0,.47.02.03.07.04.12.04-.02.01-.03.02-.05.03-.27.18-.28.22-.47.31-.24.12-.56.28-.78.16-.06-.04-.12-.1-.2-.13-.24.24-.42.53-.58.91-.46,1.14.04,1.49-.47,2.03-1.12,1.21-4.72.75-6.86-.94-.37-.29-1.06-.9-2.18-1.25-.66-.2-1.44-.44-2.03,0-.6.45-.76,1.43-.47,2.03.1.21.27.38.58.63.02,0,.03,0,.05-.01.09-.04.11-.16.16-.31.03-.11.06-.29,0-.62-.07-.41-.17-.41-.16-.62.02-.33.26-.57.31-.62.29-.28.65-.31.78-.31.16-.01.4,0,1.25.47.59.32.88.48,1.25.78.27.22.49.46.94.94.61.66.65.77.94.94.37.2.44.1,1.09.31.75.25.7.41,1.4.62.07.02.66.19,1.4.16.36-.02.5-.08.62-.16.2-.14.33-.37.47-.62.11-.2.16-.33.31-.47.12-.1.28-.19.31-.16s-.05.16-.16.31c-.16.25-.31.52-.47.78-.37.61-.45.72-.47.94-.01.17.04.19.31.94.01.03.03.06.04.1.67-.15,1.29-.45,1.84-.72.46-.23.86-.47,1.16-.69.04-.17.07-.36.09-.56.05-.5,0-.67.16-.94.16-.26.34-.33.31-.47-.04-.17-.38-.24-.78-.31-.52-.1-.62-.04-.94-.16-.21-.08-.5-.19-.62-.47-.11-.26-.03-.52,0-.62.05-.14.14-.34.47-.62.36-.3.52-.3,1.09-.62.32-.18.61-.34.94-.62.35-.3.34-.39.78-.78.16-.15.39-.34.7-.54.37-.24.46-.2.94-.47.66-.38.99-.56,1.25-.78.31-.26.52-.53.78-.47.17.04.25.19.31.16,0,0,.01-.01.01-.02-.05-.3-.16-.58-.4-.68ZM24.03,13.88s-.04-.12,0-.19c.04-.07.13-.12.17-.12.05,0,.11.06.12.12,0,.06-.04.1-.06.12-.07.08-.2.11-.23.06Z" fill="#d3d3d3"/><path d="M29.31,10.93c-.22-.29-.56-.38-1.09-.47-.8-.13-1.42-.15-1.72-.16-.72-.02-1.26-.03-2.03,0-.83.03-1.25.05-1.56.16-.23.08-.17.08-1.4.62-.11.05-.39.17-.78.31-.28.1-.41.15-.47.16-.45.05-.65-.34-1.4-.78-.5-.29-.93-.43-1.09-.47-.48-.13-.84-.15-1.25-.16-.54-.02-.83-.02-.94.16-.09.16.03.39.16.62.17.31.29.38.62.78.11.13.39.47.62.94.19.38.2.51.16.62-.04.11-.15.2-.47.31-.46.15-.82.15-1.25.16-.54.01-.33.04-1.17.08-.84.04-1.25.06-1.56,0-.43-.08-.39-.16-1.25-.47-.26-.09-.82-.29-1.56-.47-.53-.12-1.03-.37-1.56-.47-.06-.01-.22-.04-.31-.16-.15-.18-.07-.46,0-.78,0,0,.11-.51.16-1.09.03-.32-.09-.73-.31-1.56-.19-.72-.34-1.07-.62-1.4-.07-.08-.32-.37-.47-.31-.1.04-.04.21-.16.47-.13.31-.29.29-.47.62-.05.1-.08.22-.16.47-.08.28-.12.48-.16.62-.16.69-.19.68-.31,1.25-.13.65-.08.59-.16.78-.2.48-.51.61-.47.94.02.17.11.19.16.47.04.22.06.36,0,.47-.15.26-.59.04-1.09.31-.18.1-.33.27-.62.62-.16.19-.15.2-.47.62-.28.38-.43.57-.62.78-.18.2-.14.13-.47.47-.44.46-.44.51-.62.62-.22.15-.33.15-.47.31-.12.15-.23.37-.16.47.05.06.16.02.47,0h1.25c.17,0,.57-.03.94-.16.35-.12.49-.27.78-.47.87-.59,1.15-.27,1.87-.78.58-.4.79-.87,1.09-.78.13.04.17.13.31.31.19.24.44.42.94.78.85.61.92.43,1.56.94.43.33.7.66.89.63.02,0,.03,0,.05-.01.09-.04.11-.16.16-.31.03-.11.06-.29,0-.62-.07-.41-.17-.41-.16-.62.02-.33.26-.57.31-.62.29-.28.65-.31.78-.31.16-.01.4,0,1.25.47.59.32.88.48,1.25.78.27.22.49.46.94.94.61.66.65.77.94.94.37.2.44.1,1.09.31.75.25.7.41,1.4.62.07.02.66.19,1.4.16.36-.02.5-.08.62-.16.2-.14.33-.37.47-.62.11-.2.16-.33.31-.47.12-.1.28-.19.31-.16s-.05.16-.16.31c-.16.25-.31.52-.47.78-.37.61-.45.72-.47.94-.01.17.04.19.31.94.01.03.03.06.04.1.16.44.25.68.27.84.09.47.01.68.16.78.16.09.39-.03.62-.16.18-.1.31-.2.78-.62.52-.48.58-.56.62-.62.04-.06.15-.23.31-.78.09-.3.17-.57.23-.84.04-.17.07-.36.09-.56.05-.5,0-.67.16-.94.16-.26.34-.33.31-.47-.04-.17-.38-.24-.78-.31-.52-.1-.62-.04-.94-.16-.21-.08-.5-.19-.62-.47-.11-.26-.03-.52,0-.62.05-.14.14-.34.47-.62.36-.3.52-.3,1.09-.62.32-.18.61-.34.94-.62.35-.3.34-.39.78-.78.16-.15.39-.34.7-.54.37-.24.46-.2.94-.47.66-.38.99-.56,1.25-.78.31-.26.52-.53.78-.47.17.04.25.19.31.16,0,0,.01-.01.01-.02.05-.08-.01-.39-.17-.6ZM24.32,13.69c0,.06-.04.1-.06.12-.07.08-.2.11-.23.06-.03-.04-.04-.12,0-.19.04-.07.13-.12.17-.12.05,0,.11.06.12.12ZM25.02,13.51c-.08.11-.16.18-.27.24.03-.04.04-.1.04-.16-.02-.14-.12-.27-.25-.31h0s-.04,0-.06,0c-.11,0-.31.1-.43.26h0s-.03.04-.04.05c-.1.16-.08.37,0,.47.02.03.07.04.12.04-.02.01-.03.02-.05.03-.27.18-.28.22-.47.31-.24.12-.56.28-.78.16-.06-.04-.12-.1-.2-.13-.03-.01-.06-.02-.11-.03-.07,0-.08.01-.16,0-.09-.01-.24-.06-.31-.16-.12-.17.03-.47.16-.62.13-.16.29-.23.47-.31.12-.05.17-.06.47-.16.33-.1.32-.11.47-.16.23-.06.47-.1.94-.16.51-.06.58-.05.62,0,.01.02.02.03.03.05.05.15-.06.41-.18.58Z" fill="#29292d"/><path d="M24.54,13.28h0s-.04,0-.06,0c-.11,0-.31.1-.43.26h0s-.03.04-.04.05c-.1.16-.08.37,0,.47.02.03.07.04.12.04.3-.19.48-.27.62-.36.03-.04.04-.1.04-.16-.02-.14-.12-.27-.25-.31ZM24.26,13.81c-.07.08-.2.11-.23.06-.03-.04-.04-.12,0-.19.04-.07.13-.12.17-.12.05,0,.11.06.12.12,0,.06-.04.1-.06.12Z" fill="#29292d"/></svg>