<?xml version="1.0" encoding="UTF-8"?><svg id="a" xmlns="http://www.w3.org/2000/svg" viewBox="0 0 50 50"><path d="M40.58,32.43c-.13.63.18,1.22.29,1.44.05.09,0,0,.79,1.05.35.47.44.59.53.79.15.31.13.41.26.53.26.22.74.16,1.05,0,.34-.17.5-.47.79-1.05.15-.28.35-.7.53-1.32.15-.52.32-1.11.26-1.85,0-.13-.09-.53-.26-1.32-.2-.96-.24-1.03-.26-1.32-.07-.85.14-1.25,0-1.32t-.02,0c-.06,0-.15.1-.26.28h0c-.25.41-.66,1.18-1.43,1.81,0,0,0,0,0,0l-2.25,2.27Z" fill="#29292d"/><line x1="42.84" y1="30.16" x2="40.58" y2="32.43" fill="none"/><path d="M48.79,17.52c-.83-.34-2.12.68-2.64,1.05-1.52,1.1-2.81,1.86-3.91,2.46.09.25-.1.69-.31.97-.14.19-.27.3-.45.4.05-.07.07-.16.06-.26-.03-.24-.21-.45-.42-.52h0c-.29.15-.55.29-.82.43h0s-.05.06-.06.09c-.17.27-.13.63,0,.79.04.05.12.07.21.07-.03.02-.05.04-.08.05-.45.31-.47.37-.79.53-.41.21-.95.47-1.32.26-.11-.06-.2-.16-.35-.22-.4.41-.71.89-.97,1.54-.77,1.93.07,2.51-.79,3.43-1.9,2.04-7.98,1.26-11.59-1.58-.62-.49-1.79-1.53-3.69-2.11-1.11-.34-2.43-.75-3.43,0-1.02.76-1.29,2.41-.79,3.43.17.35.46.65.97,1.07.03,0,.05,0,.08-.02.15-.07.19-.26.26-.53.05-.18.1-.49,0-1.05-.12-.7-.28-.69-.26-1.05.03-.56.44-.96.53-1.05.49-.47,1.1-.52,1.32-.53.27-.02.68,0,2.11.79.99.54,1.48.81,2.11,1.32.45.37.83.77,1.58,1.58,1.03,1.11,1.09,1.3,1.58,1.58.62.35.75.16,1.85.53,1.26.42,1.19.69,2.37,1.05.12.04,1.11.33,2.37.26.6-.04.85-.13,1.05-.26.35-.24.56-.63.79-1.05.19-.35.26-.56.53-.79.2-.17.47-.32.53-.26s-.09.27-.26.53c-.27.43-.52.88-.79,1.32-.63,1.04-.76,1.22-.79,1.58-.02.29.06.32.53,1.58.02.05.05.11.06.16,1.14-.25,2.17-.76,3.1-1.22.78-.38,1.45-.8,1.96-1.16.06-.29.12-.6.15-.95.08-.85,0-1.13.26-1.58.26-.44.58-.56.53-.79-.06-.29-.64-.4-1.32-.53-.88-.16-1.05-.06-1.58-.26-.35-.14-.84-.32-1.05-.79-.19-.44-.05-.88,0-1.05.08-.24.24-.58.79-1.05.6-.51.88-.51,1.85-1.05.55-.31,1.04-.58,1.58-1.05.59-.5.58-.65,1.32-1.32.27-.25.65-.58,1.19-.92.63-.41.77-.34,1.58-.79,1.12-.64,1.67-.95,2.11-1.32.52-.45.88-.89,1.32-.79.28.06.43.32.53.26,0,0,.02-.02.02-.04-.09-.5-.27-.98-.68-1.15ZM40.26,22.63c-.05-.06-.06-.21,0-.32.07-.12.22-.2.29-.21.09,0,.19.1.2.21,0,.1-.06.17-.1.21-.12.13-.34.18-.39.11Z" fill="#d3d3d3"/><path d="M49.19,17.66c-.36-.49-.95-.65-1.85-.79-1.35-.22-2.4-.25-2.9-.26-1.21-.04-2.13-.05-3.43,0-1.41.05-2.11.09-2.64.26-.38.13-.28.14-2.37,1.05-.18.08-.66.29-1.32.53-.47.16-.7.25-.79.26-.76.08-1.1-.57-2.37-1.32-.85-.49-1.56-.72-1.85-.79-.82-.23-1.42-.25-2.11-.26-.91-.03-1.41-.04-1.58.26-.15.27.05.65.26,1.05.28.53.49.64,1.05,1.32.19.23.65.79,1.05,1.58.33.64.34.86.26,1.05-.07.18-.25.35-.79.53-.78.25-1.39.25-2.11.26-.91.02-.55.06-1.97.13-1.42.06-2.12.1-2.64,0-.73-.14-.66-.27-2.11-.79-.44-.15-1.39-.49-2.64-.79-.89-.21-1.74-.63-2.64-.79-.11-.02-.36-.06-.53-.26-.25-.31-.12-.77,0-1.32,0,0,.18-.85.26-1.85.05-.54-.15-1.24-.53-2.64-.33-1.21-.57-1.81-1.05-2.37-.12-.14-.55-.63-.79-.53-.17.07-.07.35-.26.79-.22.52-.49.48-.79,1.05-.08.16-.14.37-.26.79-.14.47-.21.82-.26,1.05-.26,1.17-.32,1.15-.53,2.11-.23,1.09-.13,1-.26,1.32-.35.82-.85,1.04-.79,1.58.04.28.18.33.26.79.06.36.11.6,0,.79-.25.45-.99.06-1.85.53-.31.17-.55.46-1.05,1.05-.26.32-.25.34-.79,1.05-.47.64-.72.95-1.05,1.32-.3.34-.24.23-.79.79-.74.77-.75.85-1.05,1.05-.37.25-.55.25-.79.53-.2.25-.39.63-.26.79.09.11.27.04.79,0h2.11c.29,0,.95-.05,1.58-.26.59-.2.83-.45,1.32-.79,1.47-.99,1.94-.45,3.16-1.32.98-.68,1.33-1.46,1.85-1.32.22.06.29.23.53.53.33.41.75.71,1.58,1.32,1.44,1.04,1.55.73,2.64,1.58.72.56,1.18,1.11,1.5,1.07.03,0,.05,0,.08-.02.15-.07.19-.26.26-.53.05-.18.1-.49,0-1.05-.12-.7-.28-.69-.26-1.05.03-.56.44-.96.53-1.05.49-.47,1.1-.52,1.32-.53.27-.02.68,0,2.11.79.99.54,1.48.81,2.11,1.32.45.37.83.77,1.58,1.58,1.03,1.11,1.09,1.3,1.58,1.58.62.35.75.16,1.85.53,1.26.42,1.19.69,2.37,1.05.12.04,1.11.33,2.37.26.6-.04.85-.13,1.05-.26.35-.24.56-.63.79-1.05.19-.35.26-.56.53-.79.2-.17.47-.32.53-.26s-.09.27-.26.53c-.27.43-.52.88-.79,1.32-.63,1.04-.76,1.22-.79,1.58-.02.29.06.32.53,1.58.02.05.05.11.06.16.27.75.42,1.15.46,1.42.15.79.02,1.15.26,1.32.26.15.65-.05,1.05-.26.31-.16.53-.34,1.32-1.05.88-.81.98-.95,1.05-1.05.07-.1.25-.38.53-1.32.15-.51.29-.95.38-1.43.06-.29.12-.6.15-.95.08-.85,0-1.13.26-1.58.26-.44.58-.56.53-.79-.06-.29-.64-.4-1.32-.53-.88-.16-1.05-.06-1.58-.26-.35-.14-.84-.32-1.05-.79-.19-.44-.05-.88,0-1.05.08-.24.24-.58.79-1.05.6-.51.88-.51,1.85-1.05.55-.31,1.04-.58,1.58-1.05.59-.5.58-.65,1.32-1.32.27-.25.65-.58,1.19-.92.63-.41.77-.34,1.58-.79,1.12-.64,1.67-.95,2.11-1.32.52-.45.88-.89,1.32-.79.28.06.43.32.53.26,0,0,.02-.02.02-.04.09-.14-.02-.65-.28-1.02ZM40.75,22.31c0,.1-.06.17-.1.21-.12.13-.34.18-.39.11-.05-.06-.06-.21,0-.32.07-.12.22-.2.29-.21.09,0,.19.1.2.21ZM41.93,22c-.14.19-.27.3-.45.4.05-.07.07-.16.06-.26-.03-.24-.21-.45-.42-.52h0s-.06,0-.1,0c-.19,0-.53.17-.72.44h0s-.05.06-.06.09c-.17.27-.13.63,0,.79.04.05.12.07.21.07-.03.02-.05.04-.08.05-.45.31-.47.37-.79.53-.41.21-.95.47-1.32.26-.11-.06-.2-.16-.35-.22-.05-.02-.11-.04-.18-.05-.12,0-.14.02-.26,0-.15-.02-.41-.1-.53-.26-.2-.29.05-.79.26-1.05.23-.27.49-.39.79-.53.2-.09.28-.1.79-.26.56-.17.55-.19.79-.26.38-.11.79-.16,1.58-.26.85-.11.98-.09,1.05,0,.02.03.04.05.05.08.09.25-.1.69-.31.97Z" fill="#29292d"/><path d="M41.12,21.62h0s-.06,0-.1,0c-.19,0-.53.17-.72.44h0s-.05.06-.06.09c-.17.27-.13.63,0,.79.04.05.12.07.21.07.51-.33.82-.46,1.05-.6.05-.07.07-.16.06-.26-.03-.24-.21-.45-.42-.52ZM40.65,22.52c-.12.13-.34.18-.39.11-.05-.06-.06-.21,0-.32.07-.12.22-.2.29-.21.09,0,.19.1.2.21,0,.1-.06.17-.1.21Z" fill="#29292d"/></svg>